<svg width="146" height="72" viewBox="0 0 146 72" fill="none" xmlns="http://www.w3.org/2000/svg">
<rect width="146" height="72" fill="white"/>
<g clip-path="url(#clip0_0_1)">
<rect width="1780" height="5993" transform="translate(-817 -45)" fill="#F5EEE8"/>
<g filter="url(#filter0_b_0_1)">
<rect x="-757" y="-8.00342" width="1660" height="88.0073" rx="16" fill="white" fill-opacity="0.2"/>
<rect x="-756.5" y="-7.50342" width="1659" height="87.0073" rx="15.5" stroke="white"/>
<path opacity="0.975" fill-rule="evenodd" clip-rule="evenodd" d="M41.7223 2.33182C41.8366 2.32206 41.9323 2.35998 42.0093 2.44556C43.9223 5.32708 45.8352 8.2086 47.7483 11.0901C47.5847 11.768 47.3934 12.4505 47.1744 13.1375C46.3971 16.7351 47.717 19.2185 51.1343 20.5877C54.5357 21.2713 57.0034 20.077 58.5376 17.0048C58.9322 15.8974 58.9131 14.7978 58.4802 13.7062C58.5184 13.6684 58.5567 13.6304 58.595 13.5925C61.8343 12.2893 65.0863 11.057 68.3513 9.8958C65.128 15.2985 61.8759 20.6824 58.595 26.0475C47.6143 26.1233 36.6338 26.1233 25.6531 26.0475C22.3722 20.6065 19.12 15.1468 15.8969 9.66831C16.1325 9.63138 16.3621 9.6693 16.5855 9.78206C19.5094 11.0037 22.4555 12.1601 25.4236 13.2513C24.8829 16.8619 26.3367 19.3074 29.7852 20.5877C32.5081 21.1629 34.708 20.3477 36.3851 18.1422C37.1315 16.7378 37.3228 15.2592 36.959 13.7062C36.7854 12.8489 36.4985 12.0337 36.0981 11.2607C38.0185 8.30673 39.8932 5.33042 41.7223 2.33182Z" fill="#F8CD71"/>
<path opacity="0.955" fill-rule="evenodd" clip-rule="evenodd" d="M54.5775 5.85791C54.6923 5.85791 54.8071 5.85791 54.9218 5.85791C55.5865 7.90972 56.2752 9.95711 56.9879 12.0001C56.0791 12.3888 55.4095 13.0332 54.9792 13.9337C54.8625 15.1416 55.1877 16.2222 55.9549 17.1754C55.0091 18.1583 53.8421 18.6323 52.4541 18.5972C50.964 18.6372 50.0075 17.9547 49.5846 16.5499C49.3799 15.9257 49.3225 15.3001 49.4124 14.6731C51.9072 13.9256 52.2707 12.5796 50.5028 10.6352C50.4263 10.5214 50.4263 10.4077 50.5028 10.2939C51.9297 8.86176 53.2878 7.38308 54.5775 5.85791Z" fill="#070707"/>
<path opacity="0.955" fill-rule="evenodd" clip-rule="evenodd" d="M28.8671 6.31274C30.3168 7.61642 31.7515 8.94343 33.1714 10.2938C32.8827 11.0978 32.6722 11.9318 32.5401 12.7962C32.5169 13.7176 32.9378 14.3432 33.8027 14.6729C34.2519 14.8189 34.711 14.9136 35.18 14.9573C34.7116 17.8268 33.0281 18.9833 30.1297 18.4265C29.2099 18.2174 28.5212 17.7056 28.0637 16.8909C28.9802 16.061 29.3819 15.0373 29.2688 13.8199C28.7937 12.986 28.0858 12.4362 27.1454 12.1706C27.0813 12.0881 27.043 11.9934 27.0306 11.8862C27.6434 10.0264 28.2557 8.16854 28.8671 6.31274Z" fill="#070707"/>
<path opacity="0.972" fill-rule="evenodd" clip-rule="evenodd" d="M25.6536 30.7679C36.7492 30.73 47.8447 30.7679 58.9397 30.8816C61.2162 34.4835 63.4927 38.0854 65.7691 41.6873C65.8171 41.9475 65.7406 42.175 65.5396 42.3698C64.2196 43.9053 62.8996 45.4409 61.5797 46.9764C55.3433 47.0143 49.1069 47.0523 42.8706 47.0901C44.7652 49.4412 46.6783 51.773 48.6096 54.0854C49.3151 53.519 50.0038 52.9314 50.6756 52.3224C52.9712 52.2465 55.2668 52.2465 57.5624 52.3224C54.596 55.5841 51.6117 58.8258 48.6096 62.0475C44.3775 57.0557 40.1306 52.07 35.869 47.0901C33.993 46.9954 32.1183 47.0144 30.2448 47.147C35.3308 53.3058 40.4385 59.448 45.5679 65.5736C45.6159 65.8338 45.5393 66.0613 45.3383 66.256C44.3807 67.3753 43.4051 68.4748 42.4114 69.5546C34.4519 60.3776 26.5321 51.1643 18.652 41.9148C32.2724 41.82 45.8929 41.7632 59.5136 41.7442C58.4374 40.0853 57.4043 38.3982 56.4146 36.6826C44.8984 36.6067 33.3821 36.5309 21.8658 36.4551C23.1296 34.5561 24.3921 32.6603 25.6536 30.7679Z" fill="black"/>
<path opacity="0.931" fill-rule="evenodd" clip-rule="evenodd" d="M118.396 33.6113C119.969 36.9205 121.519 40.2569 123.044 43.6208C124.613 40.2844 126.181 36.9478 127.75 33.6113C128.587 38.3567 129.448 43.0961 130.333 47.8293C129.58 47.9783 128.834 47.9783 128.094 47.8293C127.684 45.3087 127.224 42.8063 126.717 40.3222C125.476 43.0656 124.214 45.7955 122.929 48.5118C121.715 45.765 120.472 43.0351 119.199 40.3222C118.678 42.8508 118.219 45.3911 117.822 47.9431C117.095 47.9431 116.367 47.9431 115.641 47.9431C116.544 43.1631 117.462 38.3858 118.396 33.6113Z" fill="black"/>
<path opacity="0.928" fill-rule="evenodd" clip-rule="evenodd" d="M108.18 33.8389C110.371 38.495 112.476 43.1965 114.493 47.9431C113.724 47.9807 112.958 47.9428 112.197 47.8294C111.742 46.815 111.321 45.7913 110.934 44.7583C109.021 44.7583 107.109 44.7583 105.195 44.7583C104.815 45.8317 104.356 46.8744 103.818 47.8863C103.05 47.9808 102.285 47.9618 101.523 47.8294C103.712 43.1492 105.931 38.4857 108.18 33.8389ZM108.065 38.5024C108.765 39.8604 109.377 41.2632 109.901 42.7109C108.675 42.7487 107.45 42.7108 106.228 42.5972C106.864 41.2389 107.476 39.874 108.065 38.5024Z" fill="black"/>
<path opacity="0.934" fill-rule="evenodd" clip-rule="evenodd" d="M69.6141 34.6351C71.3396 34.5973 73.0613 34.6542 74.7792 34.8057C78.1697 35.6429 79.9296 37.804 80.0591 41.2891C79.8449 44.9407 77.932 47.1019 74.3201 47.7725C72.7537 47.8946 71.1851 47.9514 69.6141 47.9431C69.6141 43.5071 69.6141 39.0711 69.6141 34.6351ZM71.795 36.6825C73.4701 36.4871 75.0004 36.8473 76.3861 37.763C77.8818 39.3732 78.2454 41.212 77.4766 43.2796C76.8147 44.6557 75.7243 45.4708 74.2053 45.7251C73.4082 45.865 72.6047 45.9219 71.795 45.8957C71.795 42.8247 71.795 39.7536 71.795 36.6825Z" fill="black"/>
<path opacity="0.929" fill-rule="evenodd" clip-rule="evenodd" d="M82.4695 34.6353C83.6562 34.6164 84.8422 34.6353 86.0277 34.6921C89.1952 35.0351 90.4769 36.7602 89.8728 39.8675C89.4021 41.1358 88.503 41.951 87.1755 42.313C88.6364 44.1182 89.9755 45.995 91.1928 47.9433C90.3502 47.9622 89.5085 47.9433 88.6676 47.8864C87.4076 46.0512 86.1068 44.2502 84.7651 42.4836C84.6504 44.3019 84.6121 46.1218 84.6503 47.9433C83.9234 47.9433 83.1964 47.9433 82.4695 47.9433C82.4695 43.5073 82.4695 39.0713 82.4695 34.6353ZM84.6503 36.5689C85.5744 36.5343 86.4544 36.7049 87.2903 37.0807C88.0337 37.8321 88.1676 38.6852 87.692 39.64C87.2938 40.2077 86.739 40.5299 86.0277 40.6068C85.5702 40.6636 85.1111 40.6826 84.6503 40.6637C84.6503 39.2988 84.6503 37.9338 84.6503 36.5689Z" fill="black"/>
<path opacity="0.923" fill-rule="evenodd" clip-rule="evenodd" d="M93.0292 34.6353C95.5161 34.6353 98.003 34.6353 100.49 34.6353C100.49 35.3177 100.49 36.0002 100.49 36.6826C98.73 36.6826 96.9699 36.6826 95.21 36.6826C95.21 37.7442 95.21 38.8059 95.21 39.8675C96.9317 39.8675 98.6534 39.8675 100.375 39.8675C100.375 40.5499 100.375 41.2324 100.375 41.9149C98.6534 41.9149 96.9317 41.9149 95.21 41.9149C95.21 43.2419 95.21 44.5689 95.21 45.8959C96.9699 45.8959 98.73 45.8959 100.49 45.8959C100.49 46.5784 100.49 47.2608 100.49 47.9433C98.003 47.9433 95.5161 47.9433 93.0292 47.9433C93.0292 43.5073 93.0292 39.0713 93.0292 34.6353Z" fill="black"/>
<path opacity="0.871" fill-rule="evenodd" clip-rule="evenodd" d="M84.6498 50.4454C87.0882 50.2039 88.5995 51.2655 89.1836 53.6303C89.6384 55.7563 89.0453 57.5193 87.4046 58.9194C84.6821 59.9495 82.8648 59.0965 81.9525 56.3601C81.279 53.6405 82.1782 51.669 84.6498 50.4454ZM84.8794 50.9004C86.4389 50.6454 87.338 51.2899 87.5767 52.8341C87.8 54.2756 87.8 55.7164 87.5767 57.1563C87.1059 58.7072 86.092 59.2191 84.5351 58.6919C83.9217 58.2162 83.5582 57.5906 83.4446 56.8151C83.2467 55.4079 83.285 54.0049 83.5594 52.6066C83.7296 51.8063 84.1696 51.2375 84.8794 50.9004Z" fill="black"/>
<path opacity="0.842" fill-rule="evenodd" clip-rule="evenodd" d="M105.884 50.4455C106.108 50.4144 106.281 50.4902 106.401 50.673C107.281 53.365 108.161 56.0568 109.041 58.7488C109.353 58.8562 109.678 58.8941 110.017 58.8626C110.017 59.0142 110.017 59.1659 110.017 59.3175C108.869 59.3175 107.721 59.3175 106.573 59.3175C106.573 59.1659 106.573 59.0142 106.573 58.8626C106.926 58.8986 107.27 58.8607 107.606 58.7488C107.358 57.9912 107.109 57.2328 106.86 56.4739C106.47 56.3273 106.049 56.2514 105.598 56.2464C105.167 56.2484 104.746 56.2864 104.335 56.3602C104.07 57.1857 103.783 58.0009 103.474 58.8057C103.855 58.8623 104.237 58.8813 104.622 58.8626C104.622 59.0142 104.622 59.1659 104.622 59.3175C103.742 59.3175 102.862 59.3175 101.982 59.3175C101.982 59.1659 101.982 59.0142 101.982 58.8626C102.32 58.8941 102.646 58.8562 102.958 58.7488C103.946 55.9821 104.921 53.2144 105.884 50.4455ZM105.54 52.7204C105.611 52.733 105.668 52.7709 105.712 52.8341C106.035 53.8127 106.322 54.7985 106.573 55.7915C105.883 55.8103 105.195 55.7913 104.507 55.7346C104.886 54.7417 105.23 53.737 105.54 52.7204Z" fill="black"/>
<path opacity="0.894" fill-rule="evenodd" clip-rule="evenodd" d="M70.4176 50.6729C72.1014 50.6539 73.7849 50.6729 75.4679 50.7298C77.0132 51.0877 77.5297 52.0166 77.0174 53.5165C76.498 54.22 75.7902 54.6181 74.894 54.7108C75.6446 54.8871 76.2376 55.2852 76.6731 55.9051C76.7885 56.8229 76.9415 57.7329 77.1322 58.635C77.5218 58.7437 77.9235 58.7816 78.3374 58.7487C78.3374 58.9003 78.3374 59.0521 78.3374 59.2037C77.6019 59.3699 76.875 59.3509 76.1566 59.1468C75.816 58.908 75.6057 58.5856 75.5253 58.18C75.4339 57.2959 75.2808 56.4239 75.0662 55.5639C74.4564 54.9378 73.7103 54.7104 72.828 54.8814C72.828 56.2085 72.828 57.5354 72.828 58.8625C73.1723 58.8625 73.5167 58.8625 73.861 58.8625C73.861 59.0141 73.861 59.1658 73.861 59.3174C72.7132 59.3174 71.5654 59.3174 70.4176 59.3174C70.4176 59.1658 70.4176 59.0141 70.4176 58.8625C70.7619 58.8625 71.1063 58.8625 71.4506 58.8625C71.4506 56.2842 71.4506 53.7061 71.4506 51.1279C71.1063 51.1279 70.7619 51.1279 70.4176 51.1279C70.4176 50.9763 70.4176 50.8245 70.4176 50.6729ZM72.828 51.1279C73.5177 51.109 74.2064 51.128 74.894 51.1847C75.4981 51.4831 75.766 51.9759 75.6975 52.6634C75.759 53.471 75.4147 54.0018 74.6645 54.2558C74.0522 54.3203 73.4401 54.3772 72.828 54.4265C72.828 53.3269 72.828 52.2274 72.828 51.1279Z" fill="black"/>
<path opacity="0.848" fill-rule="evenodd" clip-rule="evenodd" d="M91.9964 50.6731C93.1824 50.6731 94.3685 50.6731 95.5546 50.6731C95.5546 50.8247 95.5546 50.9765 95.5546 51.1281C95.2082 51.1093 94.8638 51.1283 94.5215 51.1849C95.2344 52.2753 95.9039 53.3937 96.5302 54.5404C97.1761 53.431 97.8073 52.3126 98.4241 51.1849C98.0433 51.1283 97.6608 51.1093 97.2763 51.1281C97.2763 50.9765 97.2763 50.8247 97.2763 50.6731C98.1945 50.6731 99.1127 50.6731 100.031 50.6731C100.031 50.8247 100.031 50.9765 100.031 51.1281C99.6784 51.092 99.334 51.1299 98.998 51.2418C98.267 52.5165 97.5593 53.8056 96.8745 55.1091C96.8171 56.3597 96.798 57.6109 96.8171 58.8627C97.1997 58.8627 97.5824 58.8627 97.9649 58.8627C97.9649 59.0143 97.9649 59.166 97.9649 59.3176C96.7406 59.3176 95.5163 59.3176 94.292 59.3176C94.292 59.166 94.292 59.0143 94.292 58.8627C94.6363 58.8627 94.9807 58.8627 95.325 58.8627C95.3442 57.6109 95.325 56.3597 95.2676 55.1091C94.5024 53.8201 93.7372 52.5309 92.972 51.2418C92.6599 51.1344 92.3348 51.0966 91.9964 51.1281C91.9964 50.9765 91.9964 50.8247 91.9964 50.6731Z" fill="black"/>
<path opacity="0.849" fill-rule="evenodd" clip-rule="evenodd" d="M113.001 50.6731C114.225 50.6731 115.449 50.6731 116.674 50.6731C116.674 50.8247 116.674 50.9765 116.674 51.1281C116.292 51.1281 115.908 51.1281 115.526 51.1281C115.526 53.7063 115.526 56.2844 115.526 58.8627C116.372 58.8759 117.215 58.819 118.051 58.6921C118.799 58.2933 119.22 57.6677 119.314 56.8153C119.484 56.7855 119.636 56.8234 119.773 56.929C119.682 57.7222 119.606 58.5184 119.544 59.3176C117.363 59.3176 115.182 59.3176 113.001 59.3176C113.001 59.166 113.001 59.0143 113.001 58.8627C113.345 58.8627 113.69 58.8627 114.034 58.8627C114.034 56.2844 114.034 53.7063 114.034 51.1281C113.69 51.1281 113.345 51.1281 113.001 51.1281C113.001 50.9765 113.001 50.8247 113.001 50.6731Z" fill="black"/>
<path opacity="0.882" fill-rule="evenodd" clip-rule="evenodd" d="M122.987 50.6731C125.167 50.6731 127.348 50.6731 129.529 50.6731C129.529 51.3934 129.529 52.1139 129.529 52.8342C129.376 52.8342 129.223 52.8342 129.07 52.8342C129.056 52.1821 128.789 51.6703 128.267 51.2987C127.32 51.1388 126.363 51.0819 125.397 51.1281C125.377 52.2662 125.397 53.4036 125.454 54.5404C126.485 54.6296 127.041 54.1746 127.119 53.1755C127.271 53.1755 127.425 53.1755 127.578 53.1755C127.578 54.275 127.578 55.3745 127.578 56.474C127.425 56.474 127.271 56.474 127.119 56.474C127.139 55.3251 126.565 54.8323 125.397 54.9954C125.397 56.2844 125.397 57.5736 125.397 58.8627C126.282 58.8788 127.161 58.8219 128.037 58.6921C128.815 58.3079 129.274 57.6823 129.414 56.8153C129.551 56.7096 129.704 56.6717 129.873 56.7015C129.792 57.5712 129.754 58.4433 129.759 59.3176C127.501 59.3176 125.244 59.3176 122.987 59.3176C122.987 59.166 122.987 59.0143 122.987 58.8627C123.331 58.8627 123.675 58.8627 124.02 58.8627C124.02 56.2844 124.02 53.7063 124.02 51.1281C123.675 51.1281 123.331 51.1281 122.987 51.1281C122.987 50.9765 122.987 50.8247 122.987 50.6731Z" fill="black"/>
</g>
</g>
<defs>
<filter id="filter0_b_0_1" x="-817" y="-68.0034" width="1780" height="208.007" filterUnits="userSpaceOnUse" color-interpolation-filters="sRGB">
<feFlood flood-opacity="0" result="BackgroundImageFix"/>
<feGaussianBlur in="BackgroundImageFix" stdDeviation="30"/>
<feComposite in2="SourceAlpha" operator="in" result="effect1_backgroundBlur_0_1"/>
<feBlend mode="normal" in="SourceGraphic" in2="effect1_backgroundBlur_0_1" result="shape"/>
</filter>
<clipPath id="clip0_0_1">
<rect width="1780" height="5993" fill="white" transform="translate(-817 -45)"/>
</clipPath>
</defs>
</svg>
